# xmcd
#
# Track frame offsets:
#	150
#	12738
#	25329
#	36509
#	49248
#	58049
#	69505
#	82160
#	95802
#	108986
#	124564
#	134784
#	150815
#	163137
#	175294
#	187543
#	192406
#
# Disc length: 2805 seconds
#
# Revision: 10
# Processed by: cddbd v1.5.2PL0 Copyright (c) Steve Scherf et al.
# Submitted via: Jack! The Knife 20 Magnifico
#
DISCID=f00af311
DTITLE=La Polla Records - Bocas
DYEAR=2001
DGENRE=Punk
TTITLE0=Malajo
TTITLE1=Tan Harto
TTITLE2=Aprieta El Culo
TTITLE3=Gaseosa La Clashera
TTITLE4=La Humillación
TTITLE5=No Quiero Ser Un Rolling Stone
TTITLE6=Fucking USA
TTITLE7=Oi-Oi!!
TTITLE8=Batallitas Del Abuelo
TTITLE9=Noche Incierta
TTITLE10=¿E Que Pasou?
TTITLE11=Hoy Haré La Revolución
TTITLE12=Clo(w)n
TTITLE13=Punk
TTITLE14=Alegria Navarra
TTITLE15=Sardina
TTITLE16=Banco Vaticano
EXTD=
EXTT0=
EXTT1=
EXTT2=
EXTT3=
EXTT4=
EXTT5=
EXTT6=
EXTT7=
EXTT8=
EXTT9=
EXTT10=
EXTT11=
EXTT12=
EXTT13=
EXTT14=
EXTT15=
EXTT16=
PLAYORDER=
